<svg xmlns="http://www.w3.org/2000/svg" viewBox="0 0 129 62.14" width="100px">
    <defs>
        <style>.cls-1{fill:#f26531;}</style>
    </defs>
    <title>BDA Search</title>
    <g id="Layer_2" data-name="Layer 2">
        <g id="Layer_1-2" data-name="Layer 1">
            <path class="cls-1"
                  d="M6.29,0A4.77,4.77,0,0,1,8.72.46a7.68,7.68,0,0,1,2.08,1.4A5.91,5.91,0,0,1,12.2,4a6.54,6.54,0,0,1,.49,2.49V17.64a22,22,0,0,1,7-2.28,24.2,24.2,0,0,1,7.21,0,24.66,24.66,0,0,1,7,2.13,24.93,24.93,0,0,1,6.29,4.34,24.65,24.65,0,0,1,5.09,7.55A23.58,23.58,0,0,1,47,38.58a22.44,22.44,0,0,1-1.89,9.15A24.54,24.54,0,0,1,40,55.23a23.85,23.85,0,0,1-7.46,5.06,22.46,22.46,0,0,1-9,1.85,21.62,21.62,0,0,1-8.91-1.9,25.12,25.12,0,0,1-7.5-5.11,24.73,24.73,0,0,1-5.18-7.49A21.79,21.79,0,0,1,0,38.58V6A4.9,4.9,0,0,1,.58,3.67,7.29,7.29,0,0,1,2,1.72,7,7,0,0,1,4,.41,4.5,4.5,0,0,1,6.29,0Zm6.4,38.56a10.47,10.47,0,0,0,.87,4.23,10.65,10.65,0,0,0,2.37,3.46,12.18,12.18,0,0,0,3.44,2.34,10,10,0,0,0,4.16.87,10.16,10.16,0,0,0,4.12-.87,12.14,12.14,0,0,0,3.49-2.34,10.65,10.65,0,0,0,2.37-3.46,10.74,10.74,0,0,0,0-8.47,10.87,10.87,0,0,0-2.37-3.46,11.91,11.91,0,0,0-3.49-2.33,10,10,0,0,0-4.12-.88,9.49,9.49,0,0,0-4.16.93A12.06,12.06,0,0,0,15.93,31a11.44,11.44,0,0,0-2.37,3.51A10,10,0,0,0,12.69,38.58Z"></path>
            <path class="cls-1"
                  d="M80.09.11a6.3,6.3,0,0,1,6.3,6.43v32a22.23,22.23,0,0,1-1.89,9.06,24.09,24.09,0,0,1-5.14,7.49,25.12,25.12,0,0,1-7.5,5.11A21.59,21.59,0,0,1,63,62.14,22.19,22.19,0,0,1,54,60.29a24.42,24.42,0,0,1-7.51-5.06,24.83,24.83,0,0,1-5.18-7.5,22,22,0,0,1-1.94-9.15,22.31,22.31,0,0,1,1.89-9A24.18,24.18,0,0,1,46.44,22a25.12,25.12,0,0,1,7.5-5.11A21.84,21.84,0,0,1,63,15,22.56,22.56,0,0,1,73.7,17.64V6.45A5.89,5.89,0,0,1,74.23,4a7.2,7.2,0,0,1,1.41-2,6.41,6.41,0,0,1,2-1.36A6.3,6.3,0,0,1,80.09.11ZM63,27.67a10.18,10.18,0,0,0-4.21.88,11.26,11.26,0,0,0-3.49,2.38,11.44,11.44,0,0,0-2.37,3.51A10.25,10.25,0,0,0,52,38.58a10.47,10.47,0,0,0,.87,4.23,10.65,10.65,0,0,0,2.37,3.46,11.88,11.88,0,0,0,3.49,2.34,10.34,10.34,0,0,0,4.21.87A9.86,9.86,0,0,0,67,48.61a11.71,11.71,0,0,0,5.81-5.85,10.1,10.1,0,0,0,.87-4.18,10.67,10.67,0,0,0-.87-4.33,10.79,10.79,0,0,0-2.38-3.46A11,11,0,0,0,67,28.5,10.32,10.32,0,0,0,63,27.67Z"></path>
            <path class="cls-1"
                  d="M108.28,15.11a22.68,22.68,0,0,1,8.18,2.53A23.37,23.37,0,0,1,123,22.85a24.42,24.42,0,0,1,4.36,7.21,22.87,22.87,0,0,1,1.6,8.52V55.81a5.92,5.92,0,0,1-1.94,4.48A6.18,6.18,0,0,1,117.28,59a5.89,5.89,0,0,0-.87.44,8.81,8.81,0,0,1-.77.44,25.53,25.53,0,0,1-4.75,1.66,23.54,23.54,0,0,1-5.33.58,22.31,22.31,0,0,1-13-3.94A24.39,24.39,0,0,1,84.06,48a26,26,0,0,1-1.5-4.57,22.64,22.64,0,0,1,0-9.74,26.36,26.36,0,0,1,1.5-4.58,23.9,23.9,0,0,1,8.52-10.22,22.49,22.49,0,0,1,13-3.9H107A10.14,10.14,0,0,1,108.28,15.11Zm-2.81,34.37a10.89,10.89,0,0,0,4.21-.82,10.73,10.73,0,0,0,3.44-2.29,11.13,11.13,0,0,0,2.32-3.46,10.7,10.7,0,0,0,.87-4.33,10.25,10.25,0,0,0-.87-4.14,11.44,11.44,0,0,0-2.37-3.51,11.26,11.26,0,0,0-3.49-2.38,10,10,0,0,0-4.11-.88,9.68,9.68,0,0,0-4.07.88,11.39,11.39,0,0,0-5.81,5.89,10.25,10.25,0,0,0-.87,4.14,9.88,9.88,0,0,0,.92,4.23,11.11,11.11,0,0,0,2.42,3.46,12,12,0,0,0,3.44,2.34A9.58,9.58,0,0,0,105.47,49.48Z"></path>
        </g>
    </g>
</svg>
